<svg id="avatar-noimage" xmlns="http://www.w3.org/2000/svg" width="149" height="149" viewBox="0 0 149 149">
  <circle id="Ellipse_83" data-name="Ellipse 83" cx="74.5" cy="74.5" r="74.5" fill="#f6f6f6"/>
  <g id="user" transform="translate(40 32.75)">
    <path id="Path_216" data-name="Path 216" d="M107.143,40.222a19.459,19.459,0,0,0,14.22-5.892,19.459,19.459,0,0,0,5.891-14.219,19.462,19.462,0,0,0-5.892-14.219,20.107,20.107,0,0,0-28.439,0A19.46,19.46,0,0,0,87.032,20.11a19.459,19.459,0,0,0,5.893,14.22,19.464,19.464,0,0,0,14.219,5.891Zm0,0" transform="translate(-72.838)" fill="#e6b9b9"/>
    <path id="Path_217" data-name="Path 217" d="M69.495,271.19a49.672,49.672,0,0,0-.677-5.276,41.569,41.569,0,0,0-1.3-5.3,26.2,26.2,0,0,0-2.181-4.947,18.67,18.67,0,0,0-3.288-4.285,14.5,14.5,0,0,0-4.724-2.968,16.325,16.325,0,0,0-6.03-1.091c-.852,0-1.677.35-3.269,1.386-.98.639-2.126,1.378-3.405,2.2a19.51,19.51,0,0,1-4.406,1.941,17.108,17.108,0,0,1-10.778,0,19.466,19.466,0,0,1-4.4-1.94c-1.267-.81-2.414-1.549-3.408-2.2-1.59-1.036-2.415-1.386-3.267-1.386a16.3,16.3,0,0,0-6.03,1.093,14.486,14.486,0,0,0-4.724,2.968,18.671,18.671,0,0,0-3.287,4.285,26.253,26.253,0,0,0-2.181,4.948,41.668,41.668,0,0,0-1.3,5.3,49.5,49.5,0,0,0-.677,5.278c-.111,1.6-.167,3.256-.167,4.931a13.865,13.865,0,0,0,4.118,10.49,14.824,14.824,0,0,0,10.611,3.871H54.934a14.821,14.821,0,0,0,10.611-3.871,13.859,13.859,0,0,0,4.118-10.49c0-1.682-.057-3.342-.169-4.932Zm0,0" transform="translate(0 -206.983)" fill="#bc2323"/>
  </g>
</svg>
