<svg xmlns="http://www.w3.org/2000/svg" xmlns:xlink="http://www.w3.org/1999/xlink" width="66.604" height="48.463" viewBox="0 0 66.604 48.463">
  <defs>
    <style>
      .cls-1 {
        fill: url(#linear-gradient);
      }
    </style>
    <linearGradient id="linear-gradient" x1="0.5" x2="0.5" y2="1" gradientUnits="objectBoundingBox">
      <stop offset="0" stop-color="#ffe6e6"/>
      <stop offset="1" stop-color="#e17e7e"/>
    </linearGradient>
  </defs>
  <g id="cloud-computing" transform="translate(0 -66.65)">
    <g id="Group_934" data-name="Group 934" transform="translate(0 66.65)">
      <path id="Path_201" data-name="Path 201" class="cls-1" d="M52.042,115.113H37.752V100.673h4.722a1.477,1.477,0,0,0,1.2-2.341L34.486,85.621a1.464,1.464,0,0,0-2.382,0L22.918,98.332a1.474,1.474,0,0,0,1.2,2.341h4.722v14.439h-16C5.689,114.718,0,108.036,0,100.8a13.558,13.558,0,0,1,6.723-11.7,9.09,9.09,0,0,1-.558-3.171,9.218,9.218,0,0,1,9.227-9.227,9.069,9.069,0,0,1,3.157.558,18.472,18.472,0,0,1,35.1,6.1,16.07,16.07,0,0,1-1.606,31.764Z" transform="translate(0 -66.65)"/>
    </g>
  </g>
</svg>
