<svg xmlns="http://www.w3.org/2000/svg" width="14" height="16.73" viewBox="0 0 14 16.73">
  <g id="シンプルなポイント袋のアイコン" transform="translate(-41.776 -0.001)">
    <path id="Path_888" data-name="Path 888" d="M236.749,258.174h-.993v2h.993a1.008,1.008,0,1,0,0-2Z" transform="translate(-187.642 -249.737)" fill="#a9b7c9"/>
    <path id="Path_889" data-name="Path 889" d="M55.6,8.876c-.943-3.756-4.59-5.168-4.909-5.512L51.591.1A4.115,4.115,0,0,0,48.9.41a2.814,2.814,0,0,1-3.11-.236l.986,3.24c-.309.352-4.189,1.929-4.892,5.64-.605,3.193,1.291,7.749,6.958,7.675S56.395,12.029,55.6,8.876Zm-6.5,2.671h-.993V13a.507.507,0,0,1-.507.507h-.254A.506.506,0,0,1,46.846,13V7.833a.507.507,0,0,1,.506-.506h1.754a2.277,2.277,0,0,1,2.408,2.111A2.277,2.277,0,0,1,49.107,11.547Z" transform="translate(0 0)" fill="#a9b7c9"/>
  </g>
</svg>
