<svg xmlns="http://www.w3.org/2000/svg" width="14" height="14.432" viewBox="0 0 14 14.432">
  <path id="Path_942" data-name="Path 942" d="M8.643,11.064a.742.742,0,0,1,.592-.3h.019l1.294.284,1.661.363,2.884.631a1.911,1.911,0,0,0,.424.045,2.008,2.008,0,0,0,1.326-.5l.1-.087,3.424-3.032,1.14-1.01a.414.414,0,0,0-.548-.621L19.738,7.915l-3.444,3.048a1.175,1.175,0,0,1-.777.294,1.189,1.189,0,0,1-.248-.026L13.3,10.8l-2.377-.525L9.257,9.9h0V9.9l-.012,0L9,9.841a.74.74,0,0,1-.187-.095.743.743,0,0,1-.3-.594.784.784,0,0,1,.034-.219.758.758,0,0,1,.109-.213.7.7,0,0,1,.26-.221.71.71,0,0,1,.332-.081h.018l1.295.284,1.661.363,2.884.631a1.914,1.914,0,0,0,.424.045,1.86,1.86,0,0,0,.239-.014,2,2,0,0,0,1.087-.485l.1-.086,3.424-3.032,1.14-1.01a.412.412,0,0,0,.089-.507.345.345,0,0,0-.053-.079.412.412,0,0,0-.584-.036L19.752,5.572,16.308,8.62a1.18,1.18,0,0,1-1.026.268l-1.968-.436-2.377-.525L9.271,7.558h0V7.553l-.011,0L9.018,7.5c-.012,0-.022-.01-.033-.014A.649.649,0,0,1,8.9,7.444.371.371,0,0,1,8.831,7.4a.74.74,0,0,1-.3-.594.723.723,0,0,1,.142-.432.7.7,0,0,1,.26-.221.707.707,0,0,1,.331-.081l.059,0,.911.2.806.174,3.985.862a1.579,1.579,0,0,0,1.386-.361l2.45-2.158L20.326,3.5l1.035-.913A.8.8,0,0,0,21,1.213l-.311-.067L18.419.655,15.541.034a1.579,1.579,0,0,0-1.386.361L10.31,3.771,9.154,4.787l-1.005.884a1.017,1.017,0,0,0-.108.146.7.7,0,0,0-.049.065,1.561,1.561,0,0,0,.2,2.081l0,0-.056.047a1.089,1.089,0,0,0-.108.146.813.813,0,0,0-.049.065,1.553,1.553,0,0,0,.2,2.08l0,0-.056.047a1.085,1.085,0,0,0-.108.146.648.648,0,0,0-.049.065,1.546,1.546,0,0,0-.231.455,1.577,1.577,0,0,0,.576,1.745A1.529,1.529,0,0,0,8.764,13L8.781,13l1.754.385,1.66.363,2.884.631a1.914,1.914,0,0,0,.424.045,2.009,2.009,0,0,0,1.326-.5l.1-.087,3.424-3.032,1.14-1.01a.414.414,0,0,0-.548-.621l-1.219,1.079L16.28,13.307a1.186,1.186,0,0,1-1.026.268l-1.968-.436-2.377-.525-1.667-.369L9,12.192a.746.746,0,0,1-.2-.1.745.745,0,0,1-.3-.594.724.724,0,0,1,.142-.432Z" transform="translate(-7.659 0.003)" fill="#a9b7c9"/>
</svg>
