<svg xmlns="http://www.w3.org/2000/svg" width="14" height="14.398" viewBox="0 0 14 14.398">
  <g id="カレンダーのフリーアイコン4" transform="translate(-7.073)">
    <path id="Path_884" data-name="Path 884" d="M121.035,2.911a.815.815,0,0,0,.814-.815V.814a.815.815,0,0,0-1.629,0V2.1A.815.815,0,0,0,121.035,2.911Z" transform="translate(-109.965)" fill="#a9b7c9"/>
    <path id="Path_885" data-name="Path 885" d="M334.658,2.911a.815.815,0,0,0,.814-.815V.814a.815.815,0,0,0-1.629,0V2.1A.815.815,0,0,0,334.658,2.911Z" transform="translate(-317.581)" fill="#a9b7c9"/>
    <path id="Path_886" data-name="Path 886" d="M19.111,41.287h-.5v.935a1.531,1.531,0,1,1-3.061,0v-.935H12.6v.935a1.531,1.531,0,1,1-3.061,0v-.935h-.5a1.962,1.962,0,0,0-1.962,1.962v9.313a1.962,1.962,0,0,0,1.962,1.962H19.111a1.962,1.962,0,0,0,1.962-1.962V43.249A1.962,1.962,0,0,0,19.111,41.287Zm1.007,11.275a1.008,1.008,0,0,1-1.007,1.007H9.035a1.008,1.008,0,0,1-1.007-1.007V44.489H20.118Z" transform="translate(0 -40.126)" fill="#a9b7c9"/>
    <rect id="Rectangle_1974" data-name="Rectangle 1974" width="1.595" height="1.595" transform="translate(12.039 10.618)" fill="#a9b7c9"/>
    <rect id="Rectangle_1975" data-name="Rectangle 1975" width="1.595" height="1.595" transform="translate(12.039 8.145)" fill="#a9b7c9"/>
    <rect id="Rectangle_1976" data-name="Rectangle 1976" width="1.595" height="1.595" transform="translate(9.567 10.618)" fill="#a9b7c9"/>
    <rect id="Rectangle_1977" data-name="Rectangle 1977" width="1.595" height="1.595" transform="translate(9.567 8.145)" fill="#a9b7c9"/>
    <rect id="Rectangle_1978" data-name="Rectangle 1978" width="1.595" height="1.595" transform="translate(16.984 5.673)" fill="#a9b7c9"/>
    <rect id="Rectangle_1979" data-name="Rectangle 1979" width="1.595" height="1.595" transform="translate(14.512 5.673)" fill="#a9b7c9"/>
    <rect id="Rectangle_1980" data-name="Rectangle 1980" width="1.595" height="1.595" transform="translate(14.512 8.145)" fill="#a9b7c9"/>
    <rect id="Rectangle_1981" data-name="Rectangle 1981" width="1.595" height="1.595" transform="translate(16.984 10.618)" fill="#a9b7c9"/>
    <rect id="Rectangle_1982" data-name="Rectangle 1982" width="1.595" height="1.595" transform="translate(16.984 8.145)" fill="#a9b7c9"/>
    <rect id="Rectangle_1983" data-name="Rectangle 1983" width="1.595" height="1.595" transform="translate(14.512 10.618)" fill="#a9b7c9"/>
    <rect id="Rectangle_1984" data-name="Rectangle 1984" width="1.595" height="1.595" transform="translate(12.039 5.673)" fill="#a9b7c9"/>
    <rect id="Rectangle_1985" data-name="Rectangle 1985" width="1.595" height="1.595" transform="translate(9.567 5.673)" fill="#a9b7c9"/>
  </g>
</svg>
