<svg xmlns="http://www.w3.org/2000/svg" width="14" height="12.26" viewBox="0 0 14 12.26">
  <g id="チケットのアイコン4" transform="translate(0 -31.811)">
    <path id="Path_890" data-name="Path 890" d="M182.831,405.991a.31.31,0,1,0,.31.309A.31.31,0,0,0,182.831,405.991Z" transform="translate(-177.53 -363.949)" fill="#a9b7c9"/>
    <path id="Path_891" data-name="Path 891" d="M182.831,363.678a.31.31,0,1,0,.31.31A.31.31,0,0,0,182.831,363.678Z" transform="translate(-177.53 -322.793)" fill="#a9b7c9"/>
    <path id="Path_892" data-name="Path 892" d="M93.43,227.51H82.241v6.909H93.992V227.51Zm0,6.347H85.6a.31.31,0,0,0-.619,0H82.8v-5.784h2.179a.31.31,0,0,0,.619,0H93.43v5.784Z" transform="translate(-79.992 -190.348)" fill="#a9b7c9"/>
    <path id="Path_893" data-name="Path 893" d="M182.831,321.372a.31.31,0,1,0,.31.31A.31.31,0,0,0,182.831,321.372Z" transform="translate(-177.53 -281.643)" fill="#a9b7c9"/>
    <path id="Path_894" data-name="Path 894" d="M182.831,279.065a.31.31,0,1,0,.31.309A.31.31,0,0,0,182.831,279.065Z" transform="translate(-177.53 -240.493)" fill="#a9b7c9"/>
    <path id="Path_895" data-name="Path 895" d="M3.222,36.307l6.88-3.733L12.287,36.6h.64L10.6,32.305l-.268-.494-.495.268L2.954,35.812l-.05.027-.494.268L.494,37.147,0,37.415l.268.495,1.418,2.613v-1.18l-.924-1.7.924-.5Z" fill="#a9b7c9"/>
  </g>
</svg>
