<svg xmlns="http://www.w3.org/2000/svg" width="14" height="9.928" viewBox="0 0 14 9.928">
  <g id="動画の再生マークのアイコン素材" transform="translate(0 -74.451)">
    <path id="Path_908" data-name="Path 908" d="M0,74.451v9.928H14V74.451Zm1.956,2.537H1.311A.209.209,0,0,1,1.1,76.78V75.6a.209.209,0,0,1,.209-.209h.644a.209.209,0,0,1,.209.209V76.78A.209.209,0,0,1,1.956,76.988Zm-.644,1.493h.644a.209.209,0,0,1,.209.209v1.175a.209.209,0,0,1-.209.209H1.311a.209.209,0,0,1-.209-.209V78.69A.209.209,0,0,1,1.311,78.481Zm0,3.361h.644a.209.209,0,0,1,.209.209v1.175a.209.209,0,0,1-.209.209H1.311a.209.209,0,0,1-.209-.209V82.051A.209.209,0,0,1,1.311,81.842Zm4.13-.49V77.478a.209.209,0,0,1,.313-.181L9.11,79.235a.209.209,0,0,1,0,.361L5.754,81.533A.209.209,0,0,1,5.441,81.353Zm7.248-4.364h-.644a.209.209,0,0,1-.209-.209V75.6a.209.209,0,0,1,.209-.209h.644a.209.209,0,0,1,.209.209V76.78A.209.209,0,0,1,12.689,76.988Zm-.644,1.493h.644a.209.209,0,0,1,.209.209v1.175a.209.209,0,0,1-.209.209h-.644a.209.209,0,0,1-.209-.209V78.69A.209.209,0,0,1,12.044,78.481Zm0,3.361h.644a.209.209,0,0,1,.209.209v1.175a.209.209,0,0,1-.209.209h-.644a.209.209,0,0,1-.209-.209V82.051A.209.209,0,0,1,12.044,81.842Z" fill="#a9b7c9"/>
  </g>
</svg>
