<svg xmlns="http://www.w3.org/2000/svg" width="14" height="14.43" viewBox="0 0 14 14.43">
  <g id="お金を受け取るアイコン_ドル編" data-name="お金を受け取るアイコン　ドル編" transform="translate(-7.636 0.002)">
    <path id="Path_896" data-name="Path 896" d="M174.576,54.451a2.456,2.456,0,1,0,2.456,2.456A2.455,2.455,0,0,0,174.576,54.451Zm.876,3.2a.684.684,0,0,1-.2.231.885.885,0,0,1-.307.14c-.052.013-.107.022-.162.03V58.4h-.413v-.34a1.839,1.839,0,0,1-.336-.057,1.291,1.291,0,0,1-.373-.224.064.064,0,0,1-.033-.049.068.068,0,0,1,.019-.057l.207-.207a.069.069,0,0,1,.084-.011.924.924,0,0,0,.273.167,1.3,1.3,0,0,0,.35.048.767.767,0,0,0,.365-.078.259.259,0,0,0,.144-.244.248.248,0,0,0-.071-.187.407.407,0,0,0-.24-.087l-.371-.033a.907.907,0,0,1-.508-.183.566.566,0,0,1-.179-.458.643.643,0,0,1,.069-.3.661.661,0,0,1,.187-.224.828.828,0,0,1,.277-.137,1.06,1.06,0,0,1,.137-.029v-.3h.413v.293a1.6,1.6,0,0,1,.274.048,1.029,1.029,0,0,1,.3.158.068.068,0,0,1,.017.107l-.195.2a.066.066,0,0,1-.079.012.823.823,0,0,0-.214-.107,1.233,1.233,0,0,0-.314-.039.508.508,0,0,0-.318.083.263.263,0,0,0-.1.215.229.229,0,0,0,.074.183.446.446,0,0,0,.247.083l.325.027a.945.945,0,0,1,.547.192.583.583,0,0,1,.186.467A.673.673,0,0,1,175.452,57.653Z" transform="translate(-159.848 -52.918)" fill="#a9b7c9"/>
    <path id="Path_897" data-name="Path 897" d="M13.778,257.508h2.356a.857.857,0,1,0,0-1.714H12.707a4.2,4.2,0,0,0-3.571,1.642l-1.361,1.189a.406.406,0,0,0-.139.305v3.95a.135.135,0,0,0,.223.1l2.63-2.254a.407.407,0,0,1,.336-.091l4.1.745a1.08,1.08,0,0,0,.818-.181s5.231-3.637,5.617-3.959h0a.807.807,0,0,0,.026-1.2,1.073,1.073,0,0,0-1.389.021c-.385.321-3.018,2.051-3.018,2.051h-3.2l-.01,0a.305.305,0,1,1,.02-.61Z" transform="translate(0 -248.587)" fill="#a9b7c9"/>
    <path id="Path_898" data-name="Path 898" d="M299.363,0a2.145,2.145,0,0,0-1.837,1.038,3.149,3.149,0,0,1,2.067,2.952c0,.1-.006.2-.015.3A2.149,2.149,0,0,0,299.363,0Z" transform="translate(-281.72)" fill="#a9b7c9"/>
  </g>
</svg>
