<svg xmlns="http://www.w3.org/2000/svg" width="14" height="17.831" viewBox="0 0 14 17.831">
  <g id="コールセンターの人物アイコン素材_その2" data-name="コールセンターの人物アイコン素材 その2" transform="translate(-55.003)">
    <path id="Path_874" data-name="Path 874" d="M86.707,10.054a.587.587,0,0,0,.186.031h0a.576.576,0,0,0,.372-.137c.226-.192.334-.518.168-1.546-.146-.912-.373-1.389-.758-1.6a.833.833,0,0,0-.266-.09,6.2,6.2,0,0,1,1.6-4.314,4.685,4.685,0,0,1,6.609,0,6.2,6.2,0,0,1,1.6,4.314.833.833,0,0,0-.266.09c-.385.207-.612.685-.758,1.6a4.763,4.763,0,0,0-.078.919,4.477,4.477,0,0,1-1.726.436.773.773,0,0,0-.662-.378h-.514a.775.775,0,0,0,0,1.55h.514a.773.773,0,0,0,.7-.446,5.361,5.361,0,0,0,1.989-.5.565.565,0,0,0,.316.1.584.584,0,0,0,.186-.031c.41-.137,1.275-1.071,1.33-3.089a7.283,7.283,0,0,0-1.892-5.288,5.721,5.721,0,0,0-8.095,0,7.283,7.283,0,0,0-1.892,5.288C85.432,8.983,86.3,9.918,86.707,10.054Z" transform="translate(-29.313)" fill="#a9b7c9"/>
    <path id="Path_875" data-name="Path 875" d="M68.854,72.11a2.245,2.245,0,0,0-1.272-1.637l-2.788-1.139a1.259,1.259,0,0,1-.732-1.141v-.225l-.073.025a1.74,1.74,0,0,1-.571.1H62.9a1.744,1.744,0,1,1,0-3.488h.514a1.724,1.724,0,0,1,1,.315l.019.013.022,0a2.377,2.377,0,0,0,1-.34l.183-.268a5.47,5.47,0,0,0,.27-1.61c0-2.6-1.645-4.49-3.911-4.49s-3.911,1.888-3.911,4.49a9.2,9.2,0,0,0,1.758,4.519,1.7,1.7,0,0,1,.093.553v.41a1.259,1.259,0,0,1-.73,1.14l-2.792,1.141a2.244,2.244,0,0,0-1.27,1.641L55,74.024H69Z" transform="translate(0 -56.193)" fill="#a9b7c9"/>
  </g>
</svg>
