<svg xmlns="http://www.w3.org/2000/svg" width="14" height="14.163" viewBox="0 0 14 14.163">
  <g id="在庫アイコン1" transform="translate(-2.943)">
    <path id="Path_910" data-name="Path 910" d="M26.991,209.729v-4.537H20.874v4.914h6.117Zm-.754-.377H21.628v-3.406h1.528v1.634l.776-.336.776.336v-1.634h1.528Z" transform="translate(-17.435 -199.516)" fill="#a9b7c9"/>
    <path id="Path_911" data-name="Path 911" d="M269.977,210.106h6.117v-4.914h-6.117Zm.754-4.16h1.528v1.634l.776-.336.776.336v-1.634h1.528v3.406h-4.609Z" transform="translate(-259.647 -199.516)" fill="#a9b7c9"/>
    <path id="Path_912" data-name="Path 912" d="M153.388,4.537V0h-6.117V4.914h6.117Zm-.754-.377h-4.609V.754h1.528V2.388l.776-.336.776.336V.754h1.528Z" transform="translate(-140.336)" fill="#a9b7c9"/>
    <path id="Path_913" data-name="Path 913" d="M16.943,412.449v-.875h-14v.875H4.27v1.028H2.943v.875h14v-.875h-1.3v-1.028Zm-10.267,0H8.754v1.028H6.676Zm6.562,1.028H11.16v-1.028h2.078Z" transform="translate(0 -400.189)" fill="#a9b7c9"/>
  </g>
</svg>
