<svg xmlns="http://www.w3.org/2000/svg" width="14" height="17.206" viewBox="0 0 14 17.206">
  <g id="履歴書アイコン6" transform="translate(-47.697)">
    <path id="Path_925" data-name="Path 925" d="M58.81,0H50.583A2.89,2.89,0,0,0,47.7,2.886V14.32a2.889,2.889,0,0,0,2.886,2.886h7.355l.313-.312,3.133-3.133.313-.313V2.886A2.89,2.89,0,0,0,58.81,0Zm1.818,13H59.011A1.515,1.515,0,0,0,57.5,14.52v1.617H50.583a1.817,1.817,0,0,1-1.817-1.817V2.886a1.817,1.817,0,0,1,1.817-1.818H58.81a1.818,1.818,0,0,1,1.818,1.818Z" fill="#a9b7c9"/>
    <path id="Path_926" data-name="Path 926" d="M173.126,278.4a2.436,2.436,0,0,1-2.8,0,2.907,2.907,0,0,0-1.38,1.284c-.345.613-.075,1.481.522,1.481h4.512c.6,0,.868-.868.522-1.481A2.908,2.908,0,0,0,173.126,278.4Z" transform="translate(-117.03 -269.042)" fill="#a9b7c9"/>
    <path id="Path_927" data-name="Path 927" d="M202.94,155.436a1.844,1.844,0,0,0,1.845-1.844v-.442a1.845,1.845,0,1,0-3.69,0v.442A1.844,1.844,0,0,0,202.94,155.436Z" transform="translate(-148.243 -146.22)" fill="#a9b7c9"/>
  </g>
</svg>
