<svg xmlns="http://www.w3.org/2000/svg" width="14" height="15.747" viewBox="0 0 14 15.747">
  <g id="判子アイコン2" transform="translate(-28.4)">
    <path id="Path_887" data-name="Path 887" d="M42.273,9.749a1.614,1.614,0,0,0-1.487-.986H37.73a.265.265,0,0,1-.064-.017.331.331,0,0,1-.124-.1.757.757,0,0,1-.1-.17,1.759,1.759,0,0,1-.124-.434,3.79,3.79,0,0,1-.047-.622,7.735,7.735,0,0,1,.177-1.54c.112-.542.285-1.046.437-1.55.076-.253.147-.505.2-.764a4,4,0,0,0,.087-.8,2.77,2.77,0,1,0-5.54,0,4.008,4.008,0,0,0,.086.8,11.836,11.836,0,0,0,.316,1.143c.118.38.236.765.32,1.171a7.718,7.718,0,0,1,.177,1.54,3.725,3.725,0,0,1-.048.63,1.92,1.92,0,0,1-.09.348,1.022,1.022,0,0,1-.086.179.462.462,0,0,1-.126.142.25.25,0,0,1-.109.043H30.014A1.614,1.614,0,0,0,28.4,10.377v3.249h14V10.377A1.608,1.608,0,0,0,42.273,9.749ZM33.48,2.77a1.91,1.91,0,0,1,.151-.747,1.93,1.93,0,0,1,.7-.845A1.926,1.926,0,0,1,36.147,1a1.931,1.931,0,0,1,.845.7A1.91,1.91,0,0,1,37.32,2.77a3.158,3.158,0,0,1-.07.628,10.972,10.972,0,0,1-.294,1.059c-.119.382-.247.8-.341,1.251a8.561,8.561,0,0,0-.2,1.712,4.616,4.616,0,0,0,.06.774,2.8,2.8,0,0,0,.132.5,1.928,1.928,0,0,0,.136.287h-2.7c.029-.05.057-.1.081-.154a2.6,2.6,0,0,0,.188-.645,4.6,4.6,0,0,0,.058-.763,8.569,8.569,0,0,0-.195-1.712c-.126-.607-.311-1.141-.456-1.623-.073-.241-.136-.47-.18-.688A3.175,3.175,0,0,1,33.48,2.77Zm8.071,10.006h-12.3v-2.4a.755.755,0,0,1,.06-.3.768.768,0,0,1,.277-.337.759.759,0,0,1,.427-.13H40.787a.764.764,0,0,1,.764.764v2.4Z" transform="translate(0 0)" fill="#a9b7c9"/>
    <rect id="Rectangle_1995" data-name="Rectangle 1995" width="11.796" height="1.167" transform="translate(29.502 14.58)" fill="#a9b7c9"/>
  </g>
</svg>
