<svg xmlns="http://www.w3.org/2000/svg" width="14" height="12.072" viewBox="0 0 14 12.072">
  <g id="舞台_映画鑑賞のアイコン素材_3_" data-name="舞台・映画鑑賞のアイコン素材 (3)" transform="translate(0 -35.25)">
    <path id="Path_876" data-name="Path 876" d="M1.068,42.171H1.2a.6.6,0,1,0,0-1.2H1.125c.9-.819,2.888-4.352,2.888-5.72H0V47.322H2.147c0-.063,0-.126,0-.19,0-1.453-.053-3.418-.916-4.74A2.226,2.226,0,0,0,1.068,42.171Z" fill="#a9b7c9"/>
    <path id="Path_877" data-name="Path 877" d="M365.219,35.25c0,1.368,1.985,4.9,2.888,5.72h-.076a.6.6,0,1,0,0,1.2h.133a2.225,2.225,0,0,0-.165.221c-.864,1.323-.916,3.287-.916,4.74,0,.064,0,.126,0,.19h2.147V35.25Z" transform="translate(-355.233)" fill="#a9b7c9"/>
    <path id="Path_878" data-name="Path 878" d="M106.438,290.525a1.024,1.024,0,1,0,1.024-1.025A1.024,1.024,0,0,0,106.438,290.525Z" transform="translate(-103.528 -247.298)" fill="#a9b7c9"/>
    <path id="Path_879" data-name="Path 879" d="M97.766,384.375a1.521,1.521,0,0,0-1.3,1.434V386.9h2.594v-1.092A1.521,1.521,0,0,0,97.766,384.375Z" transform="translate(-93.831 -339.579)" fill="#a9b7c9"/>
    <path id="Path_880" data-name="Path 880" d="M219.571,291.547a1.024,1.024,0,1,0-1.024-1.024A1.024,1.024,0,0,0,219.571,291.547Z" transform="translate(-212.571 -247.297)" fill="#a9b7c9"/>
    <path id="Path_881" data-name="Path 881" d="M209.859,384.375a1.521,1.521,0,0,0-1.3,1.434V386.9h2.594v-1.092A1.521,1.521,0,0,0,209.859,384.375Z" transform="translate(-202.859 -339.579)" fill="#a9b7c9"/>
    <path id="Path_882" data-name="Path 882" d="M331.68,291.547a1.024,1.024,0,1,0-1.024-1.024A1.024,1.024,0,0,0,331.68,291.547Z" transform="translate(-321.615 -247.297)" fill="#a9b7c9"/>
    <path id="Path_883" data-name="Path 883" d="M321.984,384.375a1.521,1.521,0,0,0-1.3,1.434V386.9h2.594v-1.092A1.521,1.521,0,0,0,321.984,384.375Z" transform="translate(-311.918 -339.579)" fill="#a9b7c9"/>
  </g>
</svg>
