<svg xmlns="http://www.w3.org/2000/svg" xmlns:xlink="http://www.w3.org/1999/xlink" width="129.916" height="33.291" viewBox="0 0 129.916 33.291">
  <defs>
    <linearGradient id="linear-gradient" x1="0.074" y1="0.169" x2="1" y2="0.853" gradientUnits="objectBoundingBox">
      <stop offset="0" stop-color="#bc2323"/>
      <stop offset="1" stop-color="#e59960"/>
    </linearGradient>
  </defs>
  <g id="Group_917" data-name="Group 917" transform="translate(-538.084 -23)">
    <path id="Path_191" data-name="Path 191" d="M1987.038,1070.124h0a2.747,2.747,0,0,0-3.666.335,11.165,11.165,0,0,1-18.139-2.466,2.126,2.126,0,0,1-.241-.96c0-.026,0-.051,0-.077a3.031,3.031,0,0,1,5.679-1.414l.025-.023a5.147,5.147,0,1,0-.1-5.071,2.438,2.438,0,0,1-.327.474,3.031,3.031,0,0,1-5.282-2.021q0-.038,0-.076a2.6,2.6,0,0,1,.31-1.161,11.162,11.162,0,0,1,18.038-2.373,2.72,2.72,0,0,0,3.691.261h0a2.754,2.754,0,0,0,.293-4.027,16.645,16.645,0,1,0,.085,22.641A2.736,2.736,0,0,0,1987.038,1070.124Z" transform="translate(-1420.436 -1023.246)" fill="url(#linear-gradient)"/>
    <text id="Comiceria" transform="translate(577 49)" fill="#707070" font-size="20" font-family="Helvetica"><tspan x="0" y="0">Comiceria</tspan></text>
  </g>
</svg>
