<svg xmlns="http://www.w3.org/2000/svg" width="12.226" height="12.226" viewBox="0 0 12.226 12.226">
  <g id="logout" transform="translate(0 -0.004)">
    <path id="Path_152" data-name="Path 152" d="M9.168,6.626a.567.567,0,0,0-.611.509V9.173a.568.568,0,0,1-.611.509H6.112V2.041a1.06,1.06,0,0,0-.832-.968L5.1,1.023H7.945a.568.568,0,0,1,.611.509V3.06a.567.567,0,0,0,.611.509.567.567,0,0,0,.611-.509V1.532A1.7,1.7,0,0,0,7.945,0H1.375A.565.565,0,0,0,1.31.015C1.28.013,1.252,0,1.222,0A1.136,1.136,0,0,0,0,1.023v9.169a1.06,1.06,0,0,0,.832.968l3.678,1.022a1.5,1.5,0,0,0,.379.047,1.136,1.136,0,0,0,1.222-1.019V10.7H7.945A1.7,1.7,0,0,0,9.779,9.173V7.135a.567.567,0,0,0-.611-.509Zm0,0" fill="#262626"/>
    <path id="Path_153" data-name="Path 153" d="M283.876,109.289l-2.445-2.445a.611.611,0,0,0-1.043.432v1.834h-2.445a.611.611,0,1,0,0,1.222h2.445v1.834a.611.611,0,0,0,1.043.432l2.445-2.445A.61.61,0,0,0,283.876,109.289Zm0,0" transform="translate(-271.83 -104.478)" fill="#262626"/>
  </g>
</svg>
