<svg xmlns="http://www.w3.org/2000/svg" width="84.384" height="96.439" viewBox="0 0 84.384 96.439">
  <defs>
    <style>
      .cls-1 {
        fill: #e2e5e7;
      }

      .cls-2 {
        fill: #b0b7bd;
      }

      .cls-3 {
        fill: #cad1d8;
      }

      .cls-4 {
        fill: #f12e2e;
      }

      .cls-5 {
        fill: #fff;
      }
    </style>
  </defs>
  <g id="pdf" transform="translate(-32)">
    <path id="Path_192" data-name="Path 192" class="cls-1" d="M102.027,0A6.045,6.045,0,0,0,96,6.027V90.412a6.045,6.045,0,0,0,6.027,6.027H162.3a6.045,6.045,0,0,0,6.027-6.027V24.11L144.22,0Z" transform="translate(-51.945)"/>
    <path id="Path_193" data-name="Path 193" class="cls-2" d="M358.027,24.11H376.11L352,0V18.082A6.045,6.045,0,0,0,358.027,24.11Z" transform="translate(-259.725)"/>
    <path id="Path_194" data-name="Path 194" class="cls-3" d="M402.082,146.082,384,128h18.082Z" transform="translate(-285.698 -103.89)"/>
    <path id="Path_195" data-name="Path 195" class="cls-4" d="M104.33,273.151a3.023,3.023,0,0,1-3.014,3.014h-66.3A3.023,3.023,0,0,1,32,273.151V243.014A3.023,3.023,0,0,1,35.014,240h66.3a3.023,3.023,0,0,1,3.014,3.014Z" transform="translate(0 -194.794)"/>
    <g id="Group_921" data-name="Group 921" transform="translate(45.137 55.438)">
      <path id="Path_196" data-name="Path 196" class="cls-5" d="M101.744,295.984a1.658,1.658,0,0,1,1.636-1.664h5.566a6.025,6.025,0,0,1,0,12.049h-4.023v3.182a1.513,1.513,0,0,1-1.543,1.661,1.624,1.624,0,0,1-1.636-1.661Zm3.179,1.371v6h4.023a3,3,0,0,0,0-6Z" transform="translate(-101.744 -294.32)"/>
      <path id="Path_197" data-name="Path 197" class="cls-5" d="M189.488,312.147a1.508,1.508,0,0,1-1.664-1.492V296.967a1.639,1.639,0,0,1,1.664-1.495h5.518c11.012,0,10.771,16.675.217,16.675Zm1.519-13.734v10.8h4c6.507,0,6.8-10.8,0-10.8h-4Z" transform="translate(-171.61 -295.255)"/>
      <path id="Path_198" data-name="Path 198" class="cls-5" d="M290.288,298.593v3.83h6.145a1.864,1.864,0,0,1,1.736,1.709,1.675,1.675,0,0,1-1.736,1.447h-6.145v5.06a1.428,1.428,0,0,1-1.444,1.492,1.531,1.531,0,0,1-1.709-1.492V296.951a1.523,1.523,0,0,1,1.709-1.495h8.46a1.5,1.5,0,0,1,1.688,1.495,1.665,1.665,0,0,1-1.688,1.639h-7.016Z" transform="translate(-252.216 -295.242)"/>
    </g>
    <path id="Path_199" data-name="Path 199" class="cls-3" d="M153.261,419.014H96v3.014h57.261a3.023,3.023,0,0,0,3.014-3.014V416A3.023,3.023,0,0,1,153.261,419.014Z" transform="translate(-51.945 -337.643)"/>
  </g>
</svg>
