<svg id="写真のフリーアイコン5" xmlns="http://www.w3.org/2000/svg" width="194.524" height="194.524" viewBox="0 0 194.524 194.524">
  <path id="Path_839" data-name="Path 839" d="M0,0V194.524H194.524V0ZM177.038,177.038H17.486V17.486H177.038Z" fill="#4b4b4b"/>
  <path id="Path_840" data-name="Path 840" d="M69.626,264.074H206.634a3.718,3.718,0,0,0,3.1-5.764l-42.516-64.416a9.29,9.29,0,0,0-15.522.017l-29.95,45.578-16.53-18.736A9.294,9.294,0,0,0,90.483,221.8L66.519,258.316a3.718,3.718,0,0,0,3.107,5.757Z" transform="translate(-40.868 -117.638)" fill="#4b4b4b"/>
  <path id="Path_841" data-name="Path 841" d="M136.821,164.268a18.849,18.849,0,1,0-18.852-18.849A18.847,18.847,0,0,0,136.821,164.268Z" transform="translate(-73.149 -78.482)" fill="#4b4b4b"/>
</svg>
