<svg xmlns="http://www.w3.org/2000/svg" width="14" height="10.526" viewBox="0 0 14 10.526">
  <g id="メールの無料アイコン素材" transform="translate(0 -63.519)">
    <path id="Path_904" data-name="Path 904" d="M447.727,173.034l-1.807-1.877,1.807-1.557Z" transform="translate(-433.727 -103.18)" fill="#a9b7c9"/>
    <path id="Path_905" data-name="Path 905" d="M1.809,171.157,0,173.037V169.6Z" transform="translate(0 -103.18)" fill="#a9b7c9"/>
    <path id="Path_906" data-name="Path 906" d="M14,257.688v1.728a.757.757,0,0,1-.757.757H.757A.757.757,0,0,1,0,259.416v-1.728l2.706-2.809L5.8,257.541a1.905,1.905,0,0,0,2.408,0l3.089-2.662Z" transform="translate(0 -186.127)" fill="#a9b7c9"/>
    <path id="Path_907" data-name="Path 907" d="M14,64.274v.757L7.4,70.718a.644.644,0,0,1-.8,0L0,65.031v-.757a.755.755,0,0,1,.757-.755H13.243A.755.755,0,0,1,14,64.274Z" fill="#a9b7c9"/>
  </g>
</svg>
