<svg xmlns="http://www.w3.org/2000/svg" width="14" height="13.563" viewBox="0 0 14 13.563">
  <g id="無料のトロフィーのアイコン素材_その3" data-name="無料のトロフィーのアイコン素材 その3" transform="translate(0 -7.986)">
    <path id="Path_899" data-name="Path 899" d="M13.966,10.557a2.216,2.216,0,0,0-.938-1.583,2.807,2.807,0,0,0-1.714-.393H11.3c.03-.257.052-.444.062-.533l.007-.054h0V7.987H2.418s.024.205.063.538l.005.049a2.692,2.692,0,0,0-1.533.411,2.216,2.216,0,0,0-.924,1.591,2.986,2.986,0,0,0,1.1,2.7,3.492,3.492,0,0,0,2.143.842c.577,1.341,2.653,2.522,2.653,2.943V18.75H4.716v1.486H3.507v1.313H10.28V20.243h0v-.007H9.071V18.75H7.861V17.063c0-.42,2.065-1.6,2.648-2.932l.1,0a3.484,3.484,0,0,0,2.281-.864A2.986,2.986,0,0,0,13.966,10.557ZM12.138,12.4a2.359,2.359,0,0,1-1.284.567c-.035,0-.07.008-.106.01.13-.927.288-2.2.412-3.232a1.956,1.956,0,0,1,1.234.19,1.109,1.109,0,0,1,.437.806A1.849,1.849,0,0,1,12.138,12.4ZM5.5,12.578l0,1.908a3.712,3.712,0,0,1-1.085-1.357A32.514,32.514,0,0,1,4.139,9.5H5.5v3.078ZM1.874,12.4a1.849,1.849,0,0,1-.708-1.655,1.109,1.109,0,0,1,.429-.81,1.75,1.75,0,0,1,1.029-.213c.113.936.254,2.076.377,2.976l.031.24A2.375,2.375,0,0,1,1.874,12.4Z" transform="translate(0)" fill="#a9b7c9"/>
  </g>
</svg>
